{"accessors":[{"bufferView":0,"componentType":5125,"count":62970,"name":"index","type":"SCALAR"},{"bufferView":1,"componentType":5126,"count":15008,"max":[0.5508000254631042,0.290800005197525,1.1050000190734863],"min":[-0.3287999927997589,-0.6732000112533569,0.5855000019073486],"name":"position","type":"VEC3"},{"bufferView":1,"byteOffset":12,"componentType":5126,"count":15008,"name":"texture_cooridinate","type":"VEC2"}],"asset":{"version":"2.0"},"bufferViews":[{"buffer":0,"byteLength":251880,"name":"indices"},{"buffer":0,"byteLength":300160,"byteOffset":251880,"byteStride":20,"name":"vertices"},{"buffer":1,"byteLength":609643}],"buffers":[{"byteLength":552040,"name":"geometry","uri":"data:application/octet-stream;base64,"},{"byteLength":609643,"name":"diffuse_texture","uri":"data:application/octet-stream;base64,"}],"extensionsUsed":["KHR_materials_unlit"],"images":[{"bufferView":2,"mimeType":"image/jpeg"}],"materials":[{"extensions":{"KHR_materials_unlit":{}},"name":"material_0","pbrMetallicRoughness":{"baseColorTexture":{"index":0}}}],"meshes":[{"primitives":[{"attributes":{"POSITION":1,"TEXCOORD_0":2},"indices":0,"material":0,"mode":4}]}],"nodes":[{"mesh":0}],"samplers":[{"wrapR":10497,"wrapS":10497,"wrapT":10497}],"scene":0,"scenes":[{"nodes":[0]}],"textures":[{"sampler":0,"source":0}]}
